<svg xmlns="http://www.w3.org/2000/svg" viewBox="0 0 64 64" role="img" aria-labelledby="vesselboost-title">
  <title id="vesselboost-title">VesselBoost launcher icon</title>
  <rect width="64" height="64" rx="12" fill="#123845"/>
  <path d="M14 46c11-2 16-8 18-18 2-8 7-12 18-12" fill="none" stroke="#ff6f61" stroke-width="7" stroke-linecap="round"/>
  <path d="M31 30c8 2 13 7 17 16M27 36c-7 0-12-3-16-9" fill="none" stroke="#ff9f7a" stroke-width="5" stroke-linecap="round"/>
  <path d="M14 46c11-2 16-8 18-18 2-8 7-12 18-12M31 30c8 2 13 7 17 16M27 36c-7 0-12-3-16-9" fill="none" stroke="#fff6e8" stroke-width="2.2" stroke-linecap="round"/>
  <circle cx="50" cy="16" r="5" fill="#ffd166"/>
  <circle cx="48" cy="46" r="5" fill="#7dd3fc"/>
</svg>
