<?xml version="1.0" encoding="UTF-8"?>
<svg id="Layer_1" xmlns="http://www.w3.org/2000/svg" xmlns:xlink="http://www.w3.org/1999/xlink" version="1.1" viewBox="0 0 1920 1080">
  <!-- Generator: Adobe Illustrator 29.4.0, SVG Export Plug-In . SVG Version: 2.1.0 Build 152)  -->
  <defs>
    <style>
      .st0, .st1, .st2 {
        isolation: isolate;
      }

      .st0, .st3, .st4 {
        fill: #fff;
      }

      .st0, .st2 {
        font-family: Neurorich-Regular, Neurorich;
        font-size: 67.4px;
      }

      .st5 {
        fill: none;
        stroke-width: 3px;
      }

      .st5, .st3, .st6, .st7, .st8 {
        stroke: #fff;
        stroke-miterlimit: 10;
      }

      .st3, .st6, .st7, .st8 {
        stroke-width: .5px;
      }

      .st2, .st7 {
        fill: #6aa329;
      }

      .st6, .st9 {
        fill: #101806;
      }

      .st8 {
        display: none;
        fill: url(#linear-gradient);
      }

      .st10 {
        fill: #1a1a1a;
      }
    </style>
    <linearGradient id="linear-gradient" x1="816.7" y1="838.2" x2="1107.2" y2="838.2" gradientTransform="translate(0 1251.7) scale(1 -1)" gradientUnits="userSpaceOnUse">
      <stop offset="0" stop-color="#ed1c24"/>
      <stop offset=".2" stop-color="#f26522"/>
      <stop offset=".4" stop-color="#ffde17"/>
      <stop offset=".6" stop-color="#6aa329"/>
      <stop offset=".8" stop-color="#21409a"/>
      <stop offset="1" stop-color="#7f3f98"/>
    </linearGradient>
  </defs>
  <rect class="st4" y="0" width="1920" height="1080"/>
  <g id="_x36_7401">
    <g vector-effect="non-scaling-stroke">
      <g id="rect24171">
        <rect class="st10" x="0" y="0" width="1920" height="1080"/>
      </g>
    </g>
  </g>
  <g id="Box">
    <path id="Box_background" class="st4" d="M961.6,537.3c-.3-.2-1.6-.4-1.9-.4-10.3-.3-151.9-41.6-160.8-33.7-8.9,7.9-.3.5-.6.6l-37.7,30.2c-7.1,5.2,14.5,14.1,45.9,22,1.1.3,4.8.5,4.4,1.6s-.2.8-.2,1.2l13.2,123.1c.2,1.1.8,1.9,1.8,2.2l129.7,46.8c1.1.4,2.2,0,2.7,0,.7,0,2.8-1.8,2.8-3.3l.2.9c0,1.3,1.1,2.2,2.5,2.4s1.7-.2,1.9-.3l131.9-46.7c.9-.3,1.5-1.1,1.6-2l13.3-123.7h0c-.3-2.9.9-1.6,3.1-2.5,31.4-7.9,54.2-16.9,46.1-22.7h0l-42.2-33.8c-.5-.4-1.1-.5-1.6-.4l-156,38.2"/>
    <g id="Box1">
      <path class="st9" d="M790.9,513.6l-8.5,6.9-8.5,6.9-8.5,6.9c-4.1,3-.3,6.1,9.2,9.5s19.7,6.5,38.7,11c3.9-.5,1.6-.9,4.7-.2s86.7,22.5,90.4,23.6c3.7,1.1,1,.2,1.5.1s.9-.3,1.4-.5c2-1.2,5.2-3.6,9-6.6,3.8-3,8.4-6.9,13.3-11.1s11.4-9.7,15.7-13.3c4.4-3.6,5.9-4.9,7.2-5.8s.9-.8,1.3-1.2.5-.7-.1-1l-.8-.3c-.4-.2-1-.3-1.4-.4-3.9-.6-13-3-25-6.1-11.9-3.1-27-7.2-42.5-11.1s-32.7-8.2-47.1-11.4c-14.4-3.2-26.9-5.3-34.4-5.7-.9,0-1.9,0-2.7.3s-1.6.3-2.3.5-1.2.5-1.6.8-1.2,1-1.2,1l-8,6.9v.3h0,0Z"/>
      <path class="st9" d="M1157.2,534.2c0,0-.2-.3-.3-.3l-19.4-16.2-18.9-15.8c-.4-.3-.9-.4-1.3-.3l-74.7,18.3s-54.8,13.6-74.3,18.1c0,0-1.6.5-1.9.8s-.3.2-.3.3l-.3.6v.6c0,.3.1.6.3.9s.9,1.2,1.1,1.4l20.9,16,20.5,16.7c.7.5,2.5,1.9,3.6,2.7s3.2.3,3.9,0c4.9-1.6,16.1-4.4,30.4-8.1,14.4-3.7,31.9-8.6,49.4-12.7l7.2-1.9,6.3-1.6,1-.3s.6.2,0,0c.4.2.9.3,1.2.3s.9,0,1.2-.1l2.4-.7,2.4-.7c5-1.2,6.6-1.7,7.9-2.2s2.5-1,6.4-2.2c5-1.6,10-3,14.2-4.4,4.2-1.5,7.8-2.8,9.8-4.2,1.2-.9,2-1.9,2.2-2.8s-.7-1.9-1-2.4v.2h0Z"/>
      <path class="st9" d="M817.3,557.5h-.9c-1.4.3-2.4,1.5-2.2,2.9l12.7,120.3c.2,1.1.8,1.9,1.7,2.2l126.2,45.1c.3.2,1.3.5,2.8.5s2-2.2,2-3.6v-181.6c0-.3-.3-.4-.5-.3l-47.1,37.5c-.6.5-1.3.5-2.1.4l-92.6-23.5h-.1Z"/>
      <path class="st9" d="M1013.3,581.1c-.7.2-2,.2-2.5-.3,0,0-.9-.5-1.3-.9l-12.8-10.5-26.9-21.4-6.4-5c-.3-.2-.5,0-.5.3v183.1c0,1.3,1.1,1.9,2.4,1.9s1.8-.5,2-.6l127.7-44.7h.2c.3-.4.4-.7.5-1.1l13-123.3h0c0-.6-.5-1.1-1.1-1.1h-.3l-92.3,23.4h0l-1.8.3h0Z"/>
    </g>
  </g>
  <g id="Brain">
    <path id="Brain_background_2" class="st8" d="M916.4,319.3l-79.8,44.9c-5.6,3.2-9.5,8.6-10.9,14.9-6.6,32.6-17.9,43,2.8,74.1,3,4.5,7.5,7.8,12.8,9.1,37.5,9.8,48.4,6.9,71.7,39.9,5.2,7.4,14.4,10.9,23.2,8.9,17.1-4,40.2-16.2,52.7-22.1,3.6-1.6,7.5-2.4,11.4-2l55.9,4.7c2.2.2,4.5,0,6.7-.5,37.4-8.4,55.9-51,36.3-83.9-7.9-13.4-18.8-27-29.9-46-2.3-3.9-5.8-7.2-10-9.1-52.1-24-78.5-46.1-142.9-32.9"/>
    <path id="Brain_background" class="st3" d="M916.4,319.3l-79.8,44.9c-5.6,3.2-9.5,8.6-10.9,14.9-6.6,32.6-17.9,43,2.8,74.1,3,4.5,7.5,7.8,12.8,9.1,37.5,9.8,48.4,6.9,71.7,39.9,5.2,7.4,14.4,10.9,23.2,8.9,17.1-4,40.2-16.2,52.7-22.1,3.6-1.6,7.5-2.4,11.4-2l55.9,4.7c2.2.2,4.5,0,6.7-.5,37.4-8.4,55.9-51,36.3-83.9-7.9-13.4-18.8-27-29.9-46-2.3-3.9-5.8-7.2-10-9.1-52.1-24-78.5-46.1-142.9-32.9"/>
    <g id="Electrods">
      <path class="st7" d="M917.5,411.2c-.8-2.6-2.6-3.6-3.9-3.9-.5,0-.9-.2-1.4-.2-1.8,0-3.7.8-4.9,2.1-.9,1-1.9,2.8-1,5.3.8,2.6,2.6,3.6,3.9,3.9,2.2.6,4.8-.3,6.3-2,.9-1,1.9-2.8,1-5.3h0Z"/>
      <path class="st7" d="M879.4,388.1h0c-1.2-1.1-2.4-1.4-3.5-1.4s-1.3.2-1.9.3c-2.1.8-3.9,3-4.2,5.2-.3,1.3,0,3.3,2.1,5,2.1,1.8,4.1,1.6,5.3,1,2.1-.8,3.8-3,4.1-5.1.3-1.3,0-3.3-2.1-5h0s0,0,0,0h0Z"/>
      <path class="st7" d="M918.6,372.9h0c-.3,1.4,0,3.4,2.1,5,2.2,1.8,4.1,1.6,5.4,1,2.1-.8,3.8-3,4.1-5.2.3-1.3,0-3.3-2.2-5-1.2-1.1-2.4-1.4-3.5-1.4s-1.3.2-1.9.3c-2.1.8-3.9,3-4.2,5.2h.1q0,0,0,0Z"/>
      <path class="st7" d="M969.2,410.4c-1.2-1.1-2.4-1.4-3.5-1.4s-1.3.2-1.9.3c-2.1.8-3.9,3-4.2,5.2-.3,1.3,0,3.3,2.1,5,2.2,1.8,4.1,1.6,5.4,1,2.1-.8,3.8-3,4.1-5.2h0c.3-1.2,0-3.3-2.2-4.9h.1q0,0,0,0Z"/>
      <path class="st7" d="M933.3,461.4h0c2.1-.8,3.8-3,4.1-5.1.3-1.3,0-3.3-2.1-5-1.2-1.1-2.4-1.4-3.5-1.4s-1.3.2-1.9.3c-2.1.8-3.9,3-4.2,5.2-.3,1.3,0,3.3,2.1,5,2.1,1.8,4.1,1.6,5.3,1h.1Z"/>
      <path class="st7" d="M1075,460.5c2.1,1.8,4.1,1.6,5.4,1,2.1-.8,3.8-3,4.1-5.2.3-1.3,0-3.3-2.2-5-1.2-1.1-2.4-1.4-3.5-1.4s-1.3.2-1.9.3c-2.1.8-3.9,3-4.2,5.2h0c-.3,1.4,0,3.4,2.1,5h.1,0Z"/>
      <path class="st7" d="M1012,362.7c-.8-2.6-2.6-3.5-3.9-3.8-.5,0-.9-.2-1.4-.2-1.9,0-3.8.8-5,2.1-.9,1-1.9,2.7-1,5.3.8,2.6,2.5,3.6,3.8,3.9,2.2.6,4.8-.2,6.4-2,.9-1,1.9-2.8,1.1-5.3h0s0,0,0,0h0Z"/>
      <path class="st7" d="M1016.6,452.9c-1.1,0-1.3.2-1.9.3-2.1.8-3.9,3-4.2,5.2-.3,1.3,0,3.3,2.1,5,1.1.9,2.3,1.4,3.7,1.4,2.4,0,4.7-2,5.6-4.5.8-2.3,0-4.4-1.9-6h0c-1.2-1-2.4-1.4-3.5-1.4h0Z"/>
      <path class="st7" d="M876,435.5c2.4,0,4.7-2,5.6-4.5.8-2.3,0-4.4-1.9-6-1.2-1-2.4-1.4-3.5-1.4s-1.3.2-1.9.3c-2.1.8-3.9,3-4.2,5.2-.3,1.3,0,3.3,2.1,5h0c1.1.9,2.3,1.4,3.7,1.4h0Z"/>
      <path class="st7" d="M1026,418.3c-.5,0-.9-.2-1.4-.2-1.8,0-3.7.8-4.9,2.1-.9,1-1.9,2.8-1,5.3.8,2.6,2.6,3.6,3.9,3.9,2.2.5,4.8-.3,6.3-2,.9-1,1.9-2.8,1-5.3-.8-2.6-2.6-3.6-3.9-3.9h0s0,0,0,0h0Z"/>
    </g>
    <path id="Brain_foreground" class="st6" d="M1101.4,410.5c-.3-.6-1.5-.7-2-.2l-11.6,12c-.7.7-2.2,2.7-2.6,4.3l-3.6,20.6c0,.5.3.9.6,1.2.6.5.6.8,1.2,1.2,2.3,1.9,3.4,4.4,3,7.2-.5,3.1-2.7,5.9-5.6,7-.9.3-1.8.5-2.7.5-1.8,0-3.5-.6-5-2-2.3-1.8-3.3-4.4-3-7.2.5-3.1,2.7-5.9,5.7-7,.5-.3,1.1-.3,1.7-.4.5,0,.9-.5,1-.9l3.6-21.2v-.2c.6-2.3,1.5-3.9,2.2-4.6l12.9-13.3c.5-.6,1.3-1.5,1.1-2-.3-.4-18.6-25.8-29.7-44.9-2.3-3.9-3.6-4.7-7.1-7.5-1.3-.8-1.1-1.2-3.4-2.3,0,0-2.6-1.7-2.6-.8l-5,67v.2c-.3.4,0,3.6-4.9,5.1h-.1l-12.1,1.3c-.6,0-1.1.5-1.1,1-.2,1.6-.9,2.1-2,3.3-1.7,1.8-4.2,2.9-6.6,2.9s-1.3,0-2-.3c-2.7-.6-4.7-2.6-5.6-5.4-.9-2.8-.4-5.5,1.6-7.6,2.1-2.3,5.5-3.3,8.6-2.6,2.5.6,4.4,2.3,5.3,4.7.2.5.6.7,1.1.7l10-.8h0c3.5-.8,4.6-1.8,5-5.5l4.9-64.6c0-.8-3.7-2.6-3.4-2.5-13.8-6.7-26.1-13.1-38.1-18.4h-.2c-.2,0-.3.2-.3.3l-1.9,25.5c0,.6.3,1.4.9,1.6,2.7.6,3.5,2.2,4.4,5,.9,2.9.4,5.6-1.6,7.6h0c-1.7,1.7-4.2,2.8-6.7,2.8s-2.3-.3-3-.6c-2.7-.6-3.6-2.3-4.5-5.1-.9-2.8-.4-5.4,1.5-7.5,1.4-1.5,3.3-2.5,5.3-2.8.5,0,.9-1.1.9-1.6l2-26.4v-.2l-.2-.2h0c-11.8-5-34-10-39.7-11.2-.7-.2-2-.3-2,.4.4,8.2,2.6,52.8,2.9,58.5.1,2.3-.1,3.3-1,4.6s-1.4,1.6-2.2,2.2l-45.2,28.4-.5.3c.5,2.5,0,4.9-1.8,6.7-1.6,1.8-4.2,2.9-6.6,2.9s-2.3-.3-3.3-.6h0c-2.4-1.2-3.4-2.3-4.3-5-.9-2.8-.4-5.5,1.6-7.6,2.1-2.3,5.5-3.3,8.6-2.6,1.4.5,2.5,1.1,3.3,2,.4.6,1,1.8,1.9,1.3l44.2-27.6c2.2-1.6,2.6-3.1,2.4-4.8l-2.5-58.4c0-1.1-.7-1.1-1-1.3s-28.1-.3-46.3,3.4c0,0-.3,0-.3.2-.7.4-1.1,1.1-1.1,1.9v.9l-2,20.3c0,.5,0,.8.3,1.6l10.1,20.4c.3.4.6.7,1.1.6,2-.2,3.7.5,5.4,1.9,2.3,1.9,3.4,4.4,3,7.2-.5,3.1-2.7,5.9-5.6,7-.9.3-1.8.6-2.7.6-1.8,0-3.5-.6-5-2-2.3-1.8-3.3-4.4-3-7.2.3-2.5,1.9-4.7,4-6.1.5-.3.7-.9.4-1.5l-9.9-20.3c-.3-.4-.3-1.3-.3-1.9.3-2.2,1.4-14.2,1.9-19.3,0-.9-.9-1.6-1.7-1.1l-74.5,41.9c-5.6,3.2-9.5,8.6-10.9,14.9-2.1,10.2-4.6,18.2-6.4,25.4s.3,2.2,1.2,2.6l10.9,5.2,10.2,4.7c.3,0,.6.6,2.3.4,1-.2,1.5-.3,3.3-1.6h0l11.2-9.7,9.7-7.8c.3-.2.7-.7.8-1,0-.2-.3-.6-.4-.8-.5-.8-.5-1-.7-1.9-.2-.8-.3-1.8,0-2.6.3-1.6.9-3,2-4.3s2.3-2.2,3.7-2.7c1.3-.5,2.6-.6,3.9-.4s2.6.8,3.6,1.8c1.1.9,2,2,2.5,3.2s.6,2.5.4,3.9l-.3,1.4h0c-.4,1.2-1.1,2.4-2,3.3-.9.9-2,1.7-3.2,2.2-.5.2-.9.3-1.4.4s-.8.2-1.4.2-1.3,0-2-.3c-.6-.2-1.2-.5-1.9-.8-.3-.2-.5-.2-.7-.2s-.5,0-.6.3l-12,10-10.4,8.6c-.2.2-2,1.6-3.8,2-1.9.4-3.9-.6-4.2-.6l-9.2-4.4-10.8-5-.8-.5h0c-.5-.3-1.2,0-1.4.6-2.6,12.9-1.6,24.1,10.7,42.6,1.9,2.7,5.5,5.6,6.8,6.5s.6.2.9,0l31.7-26.1c.4-.3.5-.8.4-1.3-.4-1.1-.6-2.3-.4-3.6.5-3.1,2.7-5.9,5.7-7,2.6-1,5.3-.5,7.6,1.4,2.7,2.2,3.7,5.3,2.6,8.6-1.1,3.5-4.4,6-7.8,6.1-2,0-3.8-.7-5.2-2,0,0-.2-.2-.3-.3-.4-.4-1-.4-1.5,0l-30.6,24.9c-.3.3-.3.8.2.9.8.3,2,.7,2.7.8,29.6,7.7,41.9,6.8,57.6,22.7.7.7,1.8.3,2-.3l1.3-6.8c.4-2.6.7-3.4,2-4.4,0,0,15.8-8.7,20-12.9s.2-.5.2-.5c-1.1-3-1-2.4-.6-5.2.5-3.1,2.7-5.9,5.7-7,2.6-1,5.3-.5,7.6,1.4,2.3,1.9,3.4,4.4,3,7.2-.5,3.1-2.7,5.9-5.6,7-.9.3-1.8.5-2.7.5h-1.6c-1-.2-1.9-.8-2.3-1.1-.2,0-.3-.2-.5,0l-19.9,12.7c-.8.5-1.3,1.2-1.5,2.1s-.3,1.2-.5,2.1l-1.7,8.6v1.1c3.3,3.9,5.7,7.4,9.5,12.9,5.2,7.4,14.4,10.9,23.2,8.9,16.1-3.8,37.5-14.8,50.5-21,.6-.3.9-1.1.5-1.7l-21.8-32.6c-1-1.4-1.9-5.1-1.8-6.8v-25.4c.1-.5-.3-.9-.6-1.1-.9-.3-1.8-.8-2.6-1.5-2.3-1.8-3.3-4.4-3-7.2.5-3.1,2.7-5.9,5.7-7,2.6-1,5.3-.5,7.6,1.4,2.3,1.9,3.4,4.4,3,7.2-.5,3.1-2.7,5.9-5.6,7-.4.2-.7.3-1.1.3-.5.2-.9.6-.9,1.1l.3,25.1c0,1.1,1.3,5.1,1.8,5.6l21.6,33.2c.3.5.9.6,1.4.5,3-1.1,6.2-1.6,9.4-1.2l24.2,2c.8,0,.7-.3.5-.7l-7.8-21c-.2-.5-.7-.8-1.2-.8h-.4c-2-.4-2.8-1-4.4-2h0c-2.3-1.9-3.3-4.4-3-7.2.5-3.1,2.7-5.9,5.7-7,2.6-1,5.3-.5,7.6,1.4,2.7,2.2,3.7,5.3,2.6,8.6-.7,2-1.4,3.1-3,4.2-.5.3-.5,1.3-.3,1.8l8.3,22.2c.2.4.5.7,1,.8l26,2.1c2.2.2,4.5,0,6.7-.5,36.2-8.1,55-48.1,38.5-80.5l-.5.2h0l.2.2h0Z"/>
    <path id="Brain_outline" class="st5" d="M916.4,319.3l-79.8,44.9c-5.6,3.2-9.5,8.6-10.9,14.9-6.6,32.6-17.9,43,2.8,74.1,3,4.5,7.5,7.8,12.8,9.1,37.5,9.8,48.4,6.9,71.7,39.9,5.2,7.4,14.4,10.9,23.2,8.9,17.1-4,40.2-16.2,52.7-22.1,3.6-1.6,7.5-2.4,11.4-2l55.9,4.7c2.2.2,4.5,0,6.7-.5,37.4-8.4,55.9-51,36.3-83.9-7.9-13.4-18.8-27-29.9-46-2.3-3.9-5.8-7.2-10-9.1-52.1-24-78.5-46.1-142.9-32.9"/>
  </g>
  <g id="NEURODESK_on_dark" class="st1">
    <text class="st0" transform="translate(748.4 807.4)"><tspan x="0" y="0">NEURO</tspan></text>
    <text class="st2" transform="translate(982.5 807.4)"><tspan x="0" y="0">DESK</tspan></text>
  </g>
</svg>