<svg xmlns="http://www.w3.org/2000/svg" xmlns:xlink="http://www.w3.org/1999/xlink" version="1.1" width="1920" height="1080" viewBox="0 0 1920 1080" xml:space="preserve">
<desc>Created with Fabric.js 3.5.0</desc>
<defs>
</defs>
<rect x="0" y="0" width="100%" height="100%" fill="#fff"/>
<g transform="matrix(1 0 0 1 960 540)" id="67401">
<g style="" vector-effect="non-scaling-stroke">
		<g transform="matrix(3.7795 0 0 3.7795 -0.0069 -0.004)" id="rect24171">
<rect style="stroke: none; stroke-width: 2.9873; stroke-dasharray: none; stroke-linecap: round; stroke-dashoffset: 0; stroke-linejoin: round; stroke-miterlimit: 4; is-custom-font: none; font-file-url: none; fill: rgb(26,26,26); fill-rule: nonzero; opacity: 1;" x="-254" y="-142.875" rx="0" ry="0" width="508" height="285.75"/>
</g>
		<g transform="matrix(3.7795 0 0 3.7795 -219.6 -203.7027)" id="path24299">
<path style="stroke: none; stroke-width: 0.2646; stroke-dasharray: none; stroke-linecap: butt; stroke-dashoffset: 0; stroke-linejoin: miter; stroke-miterlimit: 4; is-custom-font: none; font-file-url: none; fill: rgb(255,255,255); fill-rule: nonzero; opacity: 1;" transform=" translate(-195.8975, -88.9787)" d="m 203.08573 98.046524 h -2.667 l -9.7028 -15.0622 h -0.1016 q 0.0508 0.889 0.127 2.2098 q 0.0762 1.3208 0.0762 2.7178 v 10.1346 h -2.1082 v -18.1356 h 2.6416 l 9.6774 15.0114 h 0.1016 q -0.0254 -0.4064 -0.0762 -1.2192 q -0.0254 -0.8128 -0.0762 -1.778 q -0.0254 -0.9652 -0.0254 -1.778 v -10.2362 h 2.1336 z" stroke-linecap="round"/>
</g>
		<g transform="matrix(3.7795 0 0 3.7795 -155.8559 -195.1587)" id="path24301">
<path style="stroke: none; stroke-width: 0.2646; stroke-dasharray: none; stroke-linecap: butt; stroke-dashoffset: 0; stroke-linejoin: miter; stroke-miterlimit: 4; is-custom-font: none; font-file-url: none; fill: rgb(255,255,255); fill-rule: nonzero; opacity: 1;" transform=" translate(-212.7631, -91.2393)" d="m 212.96633 84.178124 q 1.7526 0 2.9972 0.762 q 1.27 0.762 1.9304 2.159 q 0.6858 1.3716 0.6858 3.2258 v 1.3462 h -9.3218 q 0.0508 2.3114 1.1684 3.5306 q 1.143 1.1938 3.175 1.1938 q 1.2954 0 2.286 -0.2286 q 1.016 -0.254 2.0828 -0.7112 v 1.9558 q -1.0414 0.4572 -2.0574 0.6604 q -1.016 0.2286 -2.413 0.2286 q -1.9304 0 -3.429 -0.7874 q -1.4732 -0.7874 -2.3114 -2.3368 q -0.8128 -1.5748 -0.8128 -3.8354 q 0 -2.2352 0.7366 -3.8354 q 0.762 -1.6002 2.1082 -2.4638 q 1.3716 -0.8636 3.175 -0.8636 z m -0.0254 1.8288 q -1.6002 0 -2.54 1.0414 q -0.9144 1.016 -1.0922 2.8448 h 6.9342 q -0.0254 -1.7272 -0.8128 -2.794 q -0.7874 -1.0922 -2.4892 -1.0922 z" stroke-linecap="round"/>
</g>
		<g transform="matrix(3.7795 0 0 3.7795 -99.6 -194.6787)" id="path24303">
<path style="stroke: none; stroke-width: 0.2646; stroke-dasharray: none; stroke-linecap: butt; stroke-dashoffset: 0; stroke-linejoin: miter; stroke-miterlimit: 4; is-custom-font: none; font-file-url: none; fill: rgb(255,255,255); fill-rule: nonzero; opacity: 1;" transform=" translate(-227.6475, -91.3663)" d="m 233.41331 84.432124 v 13.6144 h -1.8288 l -0.3302 -1.8034 h -0.1016 q -0.6604 1.0668 -1.8288 1.5748 q -1.1684 0.4826 -2.4892 0.4826 q -2.4638 0 -3.7084 -1.1684 q -1.2446 -1.1938 -1.2446 -3.7846 v -8.9154 h 2.2606 v 8.763 q 0 3.2512 3.0226 3.2512 q 2.2606 0 3.1242 -1.27 q 0.889 -1.27 0.889 -3.6576 v -7.0866 z" stroke-linecap="round"/>
</g>
		<g transform="matrix(3.7795 0 0 3.7795 -46.464 -195.6387)" id="path24305">
<path style="stroke: none; stroke-width: 0.2646; stroke-dasharray: none; stroke-linecap: butt; stroke-dashoffset: 0; stroke-linejoin: miter; stroke-miterlimit: 4; is-custom-font: none; font-file-url: none; fill: rgb(255,255,255); fill-rule: nonzero; opacity: 1;" transform=" translate(-241.7064, -91.1123)" d="m 244.08131 84.178124 q 0.381 0 0.8128 0.0508 q 0.4572 0.0254 0.7874 0.1016 l -0.2794 2.0574 q -0.3302 -0.0762 -0.7366 -0.127 q -0.381 -0.0508 -0.7366 -0.0508 q -1.0414 0 -1.9558 0.5842 q -0.9144 0.5588 -1.4732 1.6002 q -0.5334 1.016 -0.5334 2.3876 v 7.2644 h -2.2352 v -13.6144 h 1.8288 l 0.254 2.4892 h 0.1016 q 0.6604 -1.1176 1.7018 -1.9304 q 1.0414 -0.8128 2.4638 -0.8128 z" stroke-linecap="round"/>
</g>
		<g transform="matrix(3.7795 0 0 3.7795 -2.832 -195.1587)" id="path24307">
<path style="stroke: none; stroke-width: 0.2646; stroke-dasharray: none; stroke-linecap: butt; stroke-dashoffset: 0; stroke-linejoin: miter; stroke-miterlimit: 4; is-custom-font: none; font-file-url: none; fill: rgb(255,255,255); fill-rule: nonzero; opacity: 1;" transform=" translate(-253.2507, -91.2393)" d="m 259.5499 91.213924 q 0 3.3782 -1.7272 5.2324 q -1.7018 1.8542 -4.6228 1.8542 q -1.8034 0 -3.2258 -0.8128 q -1.397 -0.8382 -2.2098 -2.413 q -0.8128 -1.6002 -0.8128 -3.8608 q 0 -3.3782 1.7018 -5.207 q 1.7018 -1.8288 4.6228 -1.8288 q 1.8542 0 3.2512 0.8382 q 1.4224 0.8128 2.2098 2.3876 q 0.8128 1.5494 0.8128 3.81 z m -10.287 0 q 0 2.413 0.9398 3.8354 q 0.9652 1.397 3.048 1.397 q 2.0574 0 3.0226 -1.397 q 0.9652 -1.4224 0.9652 -3.8354 q 0 -2.413 -0.9652 -3.7846 q -0.9652 -1.3716 -3.048 -1.3716 q -2.0828 0 -3.0226 1.3716 q -0.9398 1.3716 -0.9398 3.7846 z" stroke-linecap="round"/>
</g>
		<g transform="matrix(3.7795 0 0 3.7795 62.9278 -203.7027)" id="path24309">
<path style="stroke: none; stroke-width: 0.2646; stroke-dasharray: none; stroke-linecap: butt; stroke-dashoffset: 0; stroke-linejoin: miter; stroke-miterlimit: 4; is-custom-font: none; font-file-url: none; fill: rgb(255,255,255); fill-rule: nonzero; opacity: 1;" transform=" translate(-270.6497, -88.9787)" d="m 277.91409 88.800924 q 0 4.5974 -2.5146 6.9342 q -2.4892 2.3114 -6.9596 2.3114 h -5.0546 v -18.1356 h 5.588 q 2.7432 0 4.7498 1.016 q 2.0066 1.016 3.0988 2.9972 q 1.0922 1.9558 1.0922 4.8768 z m -2.413 0.0762 q 0 -3.6322 -1.8034 -5.3086 q -1.778 -1.7018 -5.0546 -1.7018 h -2.9718 v 14.224 h 2.4638 q 7.366 0 7.366 -7.2136 z" stroke-linecap="round"/>
</g>
		<g transform="matrix(3.7795 0 0 3.7795 123.5039 -195.1587)" id="path24311">
<path style="stroke: none; stroke-width: 0.2646; stroke-dasharray: none; stroke-linecap: butt; stroke-dashoffset: 0; stroke-linejoin: miter; stroke-miterlimit: 4; is-custom-font: none; font-file-url: none; fill: rgb(255,255,255); fill-rule: nonzero; opacity: 1;" transform=" translate(-286.6771, -91.2393)" d="m 286.88028 84.178124 q 1.7526 0 2.9972 0.762 q 1.27 0.762 1.9304 2.159 q 0.6858 1.3716 0.6858 3.2258 v 1.3462 h -9.3218 q 0.0508 2.3114 1.1684 3.5306 q 1.143 1.1938 3.175 1.1938 q 1.2954 0 2.286 -0.2286 q 1.016 -0.254 2.0828 -0.7112 v 1.9558 q -1.0414 0.4572 -2.0574 0.6604 q -1.016 0.2286 -2.413 0.2286 q -1.9304 0 -3.429 -0.7874 q -1.4732 -0.7874 -2.3114 -2.3368 q -0.8128 -1.5748 -0.8128 -3.8354 q 0 -2.2352 0.7366 -3.8354 q 0.762 -1.6002 2.1082 -2.4638 q 1.3716 -0.8636 3.175 -0.8636 z m -0.0254 1.8288 q -1.6002 0 -2.54 1.0414 q -0.9144 1.016 -1.0922 2.8448 h 6.9342 q -0.0254 -1.7272 -0.8128 -2.794 q -0.7874 -1.0922 -2.4892 -1.0922 z" stroke-linecap="round"/>
</g>
		<g transform="matrix(3.7795 0 0 3.7795 173.6638 -195.1587)" id="path24313">
<path style="stroke: none; stroke-width: 0.2646; stroke-dasharray: none; stroke-linecap: butt; stroke-dashoffset: 0; stroke-linejoin: miter; stroke-miterlimit: 4; is-custom-font: none; font-file-url: none; fill: rgb(255,255,255); fill-rule: nonzero; opacity: 1;" transform=" translate(-299.9486, -91.2393)" d="m 304.81266 94.287324 q 0 1.9812 -1.4732 2.9972 q -1.4732 1.016 -3.9624 1.016 q -1.4224 0 -2.4638 -0.2286 q -1.016 -0.2286 -1.8034 -0.635 v -2.032 q 0.8128 0.4064 1.9558 0.762 q 1.1684 0.3302 2.3622 0.3302 q 1.7018 0 2.4638 -0.5334 q 0.762 -0.5588 0.762 -1.4732 q 0 -0.508 -0.2794 -0.9144 q -0.2794 -0.4064 -1.016 -0.8128 q -0.7112 -0.4064 -2.0574 -0.9144 q -1.3208 -0.508 -2.2606 -1.016 q -0.9398 -0.508 -1.4478 -1.2192 q -0.508 -0.7112 -0.508 -1.8288 q 0 -1.7272 1.397 -2.667 q 1.4224 -0.9398 3.7084 -0.9398 q 1.2446 0 2.3114 0.254 q 1.0922 0.2286 2.032 0.6604 l -0.762 1.778 q -0.8636 -0.3556 -1.8034 -0.6096 q -0.9398 -0.254 -1.9304 -0.254 q -1.3716 0 -2.1082 0.4572 q -0.7112 0.4318 -0.7112 1.1938 q 0 0.5588 0.3302 0.9652 q 0.3302 0.381 1.0922 0.762 q 0.7874 0.3556 2.0828 0.8636 q 1.2954 0.4826 2.2098 0.9906 q 0.9144 0.508 1.397 1.2446 q 0.4826 0.7112 0.4826 1.8034 z" stroke-linecap="round"/>
</g>
		<g transform="matrix(3.7795 0 0 3.7795 225.6478 -205.9107)" id="path24315">
<path style="stroke: none; stroke-width: 0.2646; stroke-dasharray: none; stroke-linecap: butt; stroke-dashoffset: 0; stroke-linejoin: miter; stroke-miterlimit: 4; is-custom-font: none; font-file-url: none; fill: rgb(255,255,255); fill-rule: nonzero; opacity: 1;" transform=" translate(-313.7027, -88.3945)" d="m 310.32446 88.826324 q 0 0.4064 -0.0508 1.0668 q -0.0254 0.6604 -0.0508 1.143 h 0.1016 q 0.1524 -0.2032 0.4572 -0.5842 q 0.3048 -0.381 0.6096 -0.762 q 0.3302 -0.4064 0.5588 -0.6604 l 4.3434 -4.5974 h 2.6162 l -5.5118 5.8166 l 5.8928 7.7978 h -2.6924 l -4.7244 -6.35 l -1.5494 1.3462 v 5.0038 h -2.2098 v -19.304 h 2.2098 z" stroke-linecap="round"/>
</g>
</g>
</g>
<g transform="matrix(0.7126 0 0 0.7126 960.0035 587.4164)" id="948565">
<g style="" vector-effect="non-scaling-stroke">
		<g transform="matrix(1 0 0 1 1.5129 -99.9362)" id="Layer_1">
<path style="stroke: none; stroke-width: 1; stroke-dasharray: none; stroke-linecap: butt; stroke-dashoffset: 0; stroke-linejoin: miter; stroke-miterlimit: 4; is-custom-font: none; font-file-url: none; fill: rgb(0,0,0); fill-rule: nonzero; opacity: 1;" transform=" translate(-319.5129, -321.0638)" d="M 260.89 199.75 L 158.21 257.56 a 28.63 28.63 0 0 0 -14 19.21 c -8.49 41.94 -23 55.32 3.57 95.4 a 28.41 28.41 0 0 0 16.49 11.71 c 48.32 12.64 62.32 8.91 92.32 51.43 a 28.6 28.6 0 0 0 29.93 11.38 c 22.05 -5.22 51.76 -20.82 67.84 -28.4 A 28.7 28.7 0 0 1 369 415.66 l 71.91 6 a 28.39 28.39 0 0 0 8.67 -0.59 c 48.21 -10.8 71.92 -65.55 46.66 -108 C 486 295.89 472 278.36 457.75 253.91 a 28.81 28.81 0 0 0 -12.9 -11.76 c -67.1 -30.76 -101.06 -59.39 -184 -42.4" stroke-linecap="round"/>
</g>
		<g transform="matrix(1 0 0 1 1.5129 -99.9362)" id="Layer_1">
<path style="stroke: rgb(255,255,255); stroke-width: 3; stroke-dasharray: none; stroke-linecap: butt; stroke-dashoffset: 0; stroke-linejoin: miter; stroke-miterlimit: 10; is-custom-font: none; font-file-url: none; fill: none; fill-rule: nonzero; opacity: 1;" transform=" translate(-319.5129, -321.0638)" d="M 260.89 199.75 L 158.21 257.56 a 28.63 28.63 0 0 0 -14 19.21 c -8.49 41.94 -23 55.32 3.57 95.4 a 28.41 28.41 0 0 0 16.49 11.71 c 48.32 12.64 62.32 8.91 92.32 51.43 a 28.6 28.6 0 0 0 29.93 11.38 c 22.05 -5.22 51.76 -20.82 67.84 -28.4 A 28.7 28.7 0 0 1 369 415.66 l 71.91 6 a 28.39 28.39 0 0 0 8.67 -0.59 c 48.21 -10.8 71.92 -65.55 46.66 -108 C 486 295.89 472 278.36 457.75 253.91 a 28.81 28.81 0 0 0 -12.9 -11.76 c -67.1 -30.76 -101.06 -59.39 -184 -42.4" stroke-linecap="round"/>
</g>
		<g transform="matrix(1 0 0 1 -40.1092 -48.49)" id="Layer_1">
<path style="stroke: none; stroke-width: 1; stroke-dasharray: none; stroke-linecap: butt; stroke-dashoffset: 0; stroke-linejoin: miter; stroke-miterlimit: 4; is-custom-font: none; font-file-url: none; fill: rgb(0,0,0); fill-rule: nonzero; opacity: 1;" transform=" translate(-277.8909, -372.51)" d="M 283.57 365.46 c -9 -7.5 -20.62 6.87 -11.36 14.1 C 281.25 387.06 292.82 372.69 283.57 365.46 Z" stroke-linecap="round"/>
</g>
		<g transform="matrix(1 0 0 1 -40.1092 -48.49)" id="Layer_1">
<path style="stroke: rgb(255,255,255); stroke-width: 3; stroke-dasharray: none; stroke-linecap: butt; stroke-dashoffset: 0; stroke-linejoin: miter; stroke-miterlimit: 10; is-custom-font: none; font-file-url: none; fill: none; fill-rule: nonzero; opacity: 1;" transform=" translate(-277.8909, -372.51)" d="M 283.57 365.46 c -9 -7.5 -20.62 6.87 -11.36 14.1 C 281.25 387.06 292.82 372.69 283.57 365.46 Z" stroke-linecap="round"/>
</g>
		<g transform="matrix(1 0 0 1 -46.467 -152.6605)" id="Layer_1">
<path style="stroke: none; stroke-width: 1; stroke-dasharray: none; stroke-linecap: butt; stroke-dashoffset: 0; stroke-linejoin: miter; stroke-miterlimit: 4; is-custom-font: none; font-file-url: none; fill: rgb(0,0,0); fill-rule: nonzero; opacity: 1;" transform=" translate(-271.533, -268.3395)" d="M 277.21 261.29 c -9 -7.5 -20.61 6.86 -11.36 14.1 C 274.89 282.89 286.46 268.52 277.21 261.29 Z" stroke-linecap="round"/>
</g>
		<g transform="matrix(1 0 0 1 -46.467 -152.6605)" id="Layer_1">
<path style="stroke: rgb(255,255,255); stroke-width: 3; stroke-dasharray: none; stroke-linecap: butt; stroke-dashoffset: 0; stroke-linejoin: miter; stroke-miterlimit: 10; is-custom-font: none; font-file-url: none; fill: none; fill-rule: nonzero; opacity: 1;" transform=" translate(-271.533, -268.3395)" d="M 277.21 261.29 c -9 -7.5 -20.61 6.86 -11.36 14.1 C 274.89 282.89 286.46 268.52 277.21 261.29 Z" stroke-linecap="round"/>
</g>
		<g transform="matrix(1 0 0 1 151.4573 -45.7)" id="Layer_1">
<path style="stroke: none; stroke-width: 1; stroke-dasharray: none; stroke-linecap: butt; stroke-dashoffset: 0; stroke-linejoin: miter; stroke-miterlimit: 4; is-custom-font: none; font-file-url: none; fill: rgb(0,0,0); fill-rule: nonzero; opacity: 1;" transform=" translate(-469.4573, -375.3)" d="M 475.13 368.25 c -9 -7.5 -20.61 6.87 -11.35 14.1 C 472.81 389.85 484.39 375.48 475.13 368.25 Z" stroke-linecap="round"/>
</g>
		<g transform="matrix(1 0 0 1 151.4573 -45.7)" id="Layer_1">
<path style="stroke: rgb(255,255,255); stroke-width: 3; stroke-dasharray: none; stroke-linecap: butt; stroke-dashoffset: 0; stroke-linejoin: miter; stroke-miterlimit: 10; is-custom-font: none; font-file-url: none; fill: none; fill-rule: nonzero; opacity: 1;" transform=" translate(-469.4573, -375.3)" d="M 475.13 368.25 c -9 -7.5 -20.61 6.87 -11.35 14.1 C 472.81 389.85 484.39 375.48 475.13 368.25 Z" stroke-linecap="round"/>
</g>
		<g transform="matrix(1 0 0 1 -109.7992 -127.9571)" id="Layer_1">
<path style="stroke: none; stroke-width: 1; stroke-dasharray: none; stroke-linecap: butt; stroke-dashoffset: 0; stroke-linejoin: miter; stroke-miterlimit: 4; is-custom-font: none; font-file-url: none; fill: rgb(0,0,0); fill-rule: nonzero; opacity: 1;" transform=" translate(-208.2009, -293.0429)" d="M 213.88 286 c -9 -7.5 -20.62 6.87 -11.36 14.1 C 211.56 307.57 223.13 293.2 213.88 286 Z" stroke-linecap="round"/>
</g>
		<g transform="matrix(1 0 0 1 -109.7992 -127.9571)" id="Layer_1">
<path style="stroke: rgb(255,255,255); stroke-width: 3; stroke-dasharray: none; stroke-linecap: butt; stroke-dashoffset: 0; stroke-linejoin: miter; stroke-miterlimit: 10; is-custom-font: none; font-file-url: none; fill: none; fill-rule: nonzero; opacity: 1;" transform=" translate(-208.2009, -293.0429)" d="M 213.88 286 c -9 -7.5 -20.62 6.87 -11.36 14.1 C 211.56 307.57 223.13 293.2 213.88 286 Z" stroke-linecap="round"/>
</g>
		<g transform="matrix(1 0 0 1 -136.2856 66.6534)" id="Layer_1">
<path style="stroke: rgb(255,255,255); stroke-width: 2; stroke-dasharray: none; stroke-linecap: butt; stroke-dashoffset: 0; stroke-linejoin: miter; stroke-miterlimit: 10; is-custom-font: none; font-file-url: none; fill: rgb(35,31,32); fill-rule: nonzero; opacity: 1;" transform=" translate(-181.7144, -487.6534)" d="M 53.05 479.41 L 102.25 440 c 3.34 -15.54 198.6 44.08 207.73 43 a 2.67 2.67 0 0 1 1 4.63 c -2.24 0.55 -60.81 51.74 -63.66 50.23 C 246.91 532.37 31.11 495.61 53.05 479.41 Z" stroke-linecap="round"/>
</g>
		<g transform="matrix(1 0 0 1 123.7457 65)" id="Layer_1">
<path style="stroke: rgb(255,255,255); stroke-width: 2; stroke-dasharray: none; stroke-linecap: butt; stroke-dashoffset: 0; stroke-linejoin: miter; stroke-miterlimit: 10; is-custom-font: none; font-file-url: none; fill: rgb(35,31,32); fill-rule: nonzero; opacity: 1;" transform=" translate(-441.7457, -486)" d="M 569.5 478.24 L 514.2 433.9 L 312 483.42 v 3.34 l 63.36 51.34 C 376.22 532.19 594.48 496.48 569.5 478.24 Z" stroke-linecap="round"/>
</g>
		<g transform="matrix(1 0 0 1 -103.1146 189.6328)" id="Layer_1">
<path style="stroke: rgb(255,255,255); stroke-width: 2; stroke-dasharray: none; stroke-linecap: butt; stroke-dashoffset: 0; stroke-linejoin: miter; stroke-miterlimit: 10; is-custom-font: none; font-file-url: none; fill: rgb(35,31,32); fill-rule: nonzero; opacity: 1;" transform=" translate(-214.8854, -610.6328)" d="M 312 489.85 v 240 a 3.42 3.42 0 0 1 -4.56 3.22 L 137.05 672.84 a 3.41 3.41 0 0 1 -2.26 -2.86 l -17 -158.67 a 3.42 3.42 0 0 1 4.23 -3.68 l 123.41 30.94 a 3.45 3.45 0 0 0 2.94 -0.63 L 312 488 Z" stroke-linecap="round"/>
</g>
		<g transform="matrix(1 0 0 1 91.1341 189.7193)" id="Layer_1">
<path style="stroke: rgb(255,255,255); stroke-width: 2; stroke-dasharray: none; stroke-linecap: butt; stroke-dashoffset: 0; stroke-linejoin: miter; stroke-miterlimit: 10; is-custom-font: none; font-file-url: none; fill: rgb(35,31,32); fill-rule: nonzero; opacity: 1;" transform=" translate(-409.1341, -610.7193)" d="M 312 489.85 V 730.37 a 3.06 3.06 0 0 0 4.09 2.89 l 171.07 -60.49 a 3.08 3.08 0 0 0 2 -2.56 L 506.25 510.8 a 3.06 3.06 0 0 0 -3.79 -3.3 L 378.39 538.61 a 3.06 3.06 0 0 1 -2.63 -0.56 L 312 488 Z" stroke-linecap="round"/>
</g>
		<g transform="matrix(1 0 0 1 58.79 -164.3506)" id="Layer_1">
<path style="stroke: none; stroke-width: 1; stroke-dasharray: none; stroke-linecap: butt; stroke-dashoffset: 0; stroke-linejoin: miter; stroke-miterlimit: 4; is-custom-font: none; font-file-url: none; fill: rgb(0,0,0); fill-rule: nonzero; opacity: 1;" transform=" translate(-376.79, -256.6493)" d="M 385.44 254 c -3.28 -11.28 -20.92 -5.86 -17.3 5.32 C 371.42 270.57 389.06 265.15 385.44 254 Z" stroke-linecap="round"/>
</g>
		<g transform="matrix(1 0 0 1 58.79 -164.3506)" id="Layer_1">
<path style="stroke: rgb(255,255,255); stroke-width: 3; stroke-dasharray: none; stroke-linecap: butt; stroke-dashoffset: 0; stroke-linejoin: miter; stroke-miterlimit: 10; is-custom-font: none; font-file-url: none; fill: none; fill-rule: nonzero; opacity: 1;" transform=" translate(-376.79, -256.6493)" d="M 385.44 254 c -3.28 -11.28 -20.92 -5.86 -17.3 5.32 C 371.42 270.57 389.06 265.15 385.44 254 Z" stroke-linecap="round"/>
</g>
		<g transform="matrix(1 0 0 1 5.3367 -99.31)" id="Layer_1">
<path style="stroke: none; stroke-width: 1; stroke-dasharray: none; stroke-linecap: butt; stroke-dashoffset: 0; stroke-linejoin: miter; stroke-miterlimit: 4; is-custom-font: none; font-file-url: none; fill: rgb(0,0,0); fill-rule: nonzero; opacity: 1;" transform=" translate(-323.3367, -321.69)" d="M 329 314.64 c -9 -7.5 -20.61 6.87 -11.35 14.1 C 326.72 336.24 338.29 321.87 329 314.64 Z" stroke-linecap="round"/>
</g>
		<g transform="matrix(1 0 0 1 5.3367 -99.31)" id="Layer_1">
<path style="stroke: rgb(255,255,255); stroke-width: 3; stroke-dasharray: none; stroke-linecap: butt; stroke-dashoffset: 0; stroke-linejoin: miter; stroke-miterlimit: 10; is-custom-font: none; font-file-url: none; fill: none; fill-rule: nonzero; opacity: 1;" transform=" translate(-323.3367, -321.69)" d="M 329 314.64 c -9 -7.5 -20.61 6.87 -11.35 14.1 C 326.72 336.24 338.29 321.87 329 314.64 Z" stroke-linecap="round"/>
</g>
		<g transform="matrix(1 0 0 1 -55.79 -190.5)" id="Layer_1">
<polyline style="stroke: rgb(255,255,255); stroke-width: 3; stroke-dasharray: none; stroke-linecap: butt; stroke-dashoffset: 0; stroke-linejoin: miter; stroke-miterlimit: 10; is-custom-font: none; font-file-url: none; fill: none; fill-rule: nonzero; opacity: 1;" points="7.21,29.03 -7.21,-0.5 -4.38,-29.03 "/>
</g>
		<g transform="matrix(1 0 0 1 -149.385 -106.27)" id="Layer_1">
<polyline style="stroke: rgb(255,255,255); stroke-width: 3; stroke-dasharray: none; stroke-linecap: butt; stroke-dashoffset: 0; stroke-linejoin: miter; stroke-miterlimit: 10; is-custom-font: none; font-file-url: none; fill: none; fill-rule: nonzero; opacity: 1;" points="33.745,-15.27 -1.615,15.27 -33.745,-1.2 "/>
</g>
		<g transform="matrix(1 0 0 1 -59.895 -22.22)" id="Layer_1">
<polyline style="stroke: rgb(255,255,255); stroke-width: 3; stroke-dasharray: none; stroke-linecap: butt; stroke-dashoffset: 0; stroke-linejoin: miter; stroke-miterlimit: 10; is-custom-font: none; font-file-url: none; fill: none; fill-rule: nonzero; opacity: 1;" points="15.895,-17.77 -14.415,2.51 -15.895,17.77 "/>
</g>
		<g transform="matrix(1 0 0 1 81.3476 -87.9335)" id="Layer_1">
<path style="stroke: none; stroke-width: 1; stroke-dasharray: none; stroke-linecap: butt; stroke-dashoffset: 0; stroke-linejoin: miter; stroke-miterlimit: 4; is-custom-font: none; font-file-url: none; fill: rgb(0,0,0); fill-rule: nonzero; opacity: 1;" transform=" translate(-399.3475, -333.0664)" d="M 408 330.41 c -3.29 -11.28 -20.92 -5.86 -17.31 5.32 C 394 347 411.63 341.58 408 330.41 Z" stroke-linecap="round"/>
</g>
		<g transform="matrix(1 0 0 1 81.3476 -87.9335)" id="Layer_1">
<path style="stroke: rgb(255,255,255); stroke-width: 3; stroke-dasharray: none; stroke-linecap: butt; stroke-dashoffset: 0; stroke-linejoin: miter; stroke-miterlimit: 10; is-custom-font: none; font-file-url: none; fill: none; fill-rule: nonzero; opacity: 1;" transform=" translate(-399.3475, -333.0664)" d="M 408 330.41 c -3.29 -11.28 -20.92 -5.86 -17.31 5.32 C 394 347 411.63 341.58 408 330.41 Z" stroke-linecap="round"/>
</g>
		<g transform="matrix(1 0 0 1 -62.6524 -101.9335)" id="Layer_1">
<path style="stroke: none; stroke-width: 1; stroke-dasharray: none; stroke-linecap: butt; stroke-dashoffset: 0; stroke-linejoin: miter; stroke-miterlimit: 4; is-custom-font: none; font-file-url: none; fill: rgb(0,0,0); fill-rule: nonzero; opacity: 1;" transform=" translate(-255.3475, -319.0664)" d="M 264 316.41 c -3.29 -11.28 -20.92 -5.86 -17.31 5.32 C 250 333 267.63 327.58 264 316.41 Z" stroke-linecap="round"/>
</g>
		<g transform="matrix(1 0 0 1 -62.6524 -101.9335)" id="Layer_1">
<path style="stroke: rgb(255,255,255); stroke-width: 3; stroke-dasharray: none; stroke-linecap: butt; stroke-dashoffset: 0; stroke-linejoin: miter; stroke-miterlimit: 10; is-custom-font: none; font-file-url: none; fill: none; fill-rule: nonzero; opacity: 1;" transform=" translate(-255.3475, -319.0664)" d="M 264 316.41 c -3.29 -11.28 -20.92 -5.86 -17.31 5.32 C 250 333 267.63 327.58 264 316.41 Z" stroke-linecap="round"/>
</g>
		<g transform="matrix(1 0 0 1 -22.49 -165.295)" id="Layer_1">
<polyline style="stroke: rgb(255,255,255); stroke-width: 3; stroke-dasharray: none; stroke-linecap: butt; stroke-dashoffset: 0; stroke-linejoin: miter; stroke-miterlimit: 10; is-custom-font: none; font-file-url: none; fill: none; fill-rule: nonzero; opacity: 1;" points="-31.49,60.705 31.49,21.205 27.73,-60.705 "/>
</g>
		<g transform="matrix(1 0 0 1 20.25 -47)" id="Layer_1">
<polyline style="stroke: rgb(255,255,255); stroke-width: 3; stroke-dasharray: none; stroke-linecap: butt; stroke-dashoffset: 0; stroke-linejoin: miter; stroke-miterlimit: 10; is-custom-font: none; font-file-url: none; fill: none; fill-rule: nonzero; opacity: 1;" points="-15.75,-44 -15.45,-3.24 15.75,44 "/>
</g>
		<g transform="matrix(1 0 0 1 -109.8154 -80.3435)" id="Layer_1">
<path style="stroke: none; stroke-width: 1; stroke-dasharray: none; stroke-linecap: butt; stroke-dashoffset: 0; stroke-linejoin: miter; stroke-miterlimit: 4; is-custom-font: none; font-file-url: none; fill: rgb(0,0,0); fill-rule: nonzero; opacity: 1;" transform=" translate(-208.1846, -340.6565)" d="M 213.86 333.61 c -9 -7.5 -20.61 6.87 -11.36 14.1 a 8.39 8.39 0 0 0 5.68 2.1 C 215.41 349.62 221.22 339.36 213.86 333.61 Z" stroke-linecap="round"/>
</g>
		<g transform="matrix(1 0 0 1 -109.8154 -80.3435)" id="Layer_1">
<path style="stroke: rgb(255,255,255); stroke-width: 3; stroke-dasharray: none; stroke-linecap: butt; stroke-dashoffset: 0; stroke-linejoin: miter; stroke-miterlimit: 10; is-custom-font: none; font-file-url: none; fill: none; fill-rule: nonzero; opacity: 1;" transform=" translate(-208.1846, -340.6565)" d="M 213.86 333.61 c -9 -7.5 -20.61 6.87 -11.36 14.1 a 8.39 8.39 0 0 0 5.68 2.1 C 215.41 349.62 221.22 339.36 213.86 333.61 Z" stroke-linecap="round"/>
</g>
		<g transform="matrix(1 0 0 1 -138.77 -57.955)" id="Layer_1">
<line style="stroke: rgb(255,255,255); stroke-width: 3; stroke-dasharray: none; stroke-linecap: butt; stroke-dashoffset: 0; stroke-linejoin: miter; stroke-miterlimit: 10; is-custom-font: none; font-file-url: none; fill: none; fill-rule: nonzero; opacity: 1;" x1="21.269999999999996" y1="-17.335000000000008" x2="-21.269999999999996" y2="17.335000000000008"/>
</g>
		<g transform="matrix(1 0 0 1 165.085 -80.815)" id="Layer_1">
<polyline style="stroke: rgb(255,255,255); stroke-width: 3; stroke-dasharray: none; stroke-linecap: butt; stroke-dashoffset: 0; stroke-linejoin: miter; stroke-miterlimit: 10; is-custom-font: none; font-file-url: none; fill: none; fill-rule: nonzero; opacity: 1;" points="-12.625,26.775 -6.625,-5.535 12.625,-26.775 "/>
</g>
		<g transform="matrix(1 0 0 1 87.2646 -42.2687)" id="Layer_1">
<path style="stroke: none; stroke-width: 1; stroke-dasharray: none; stroke-linecap: butt; stroke-dashoffset: 0; stroke-linejoin: miter; stroke-miterlimit: 4; is-custom-font: none; font-file-url: none; fill: rgb(0,0,0); fill-rule: nonzero; opacity: 1;" transform=" translate(-405.2646, -378.7312)" d="M 410.94 371.68 c -9 -7.5 -20.61 6.87 -11.36 14.1 a 8.45 8.45 0 0 0 5.68 2.11 C 412.49 387.69 418.3 377.43 410.94 371.68 Z" stroke-linecap="round"/>
</g>
		<g transform="matrix(1 0 0 1 87.2646 -42.2687)" id="Layer_1">
<path style="stroke: rgb(255,255,255); stroke-width: 3; stroke-dasharray: none; stroke-linecap: butt; stroke-dashoffset: 0; stroke-linejoin: miter; stroke-miterlimit: 10; is-custom-font: none; font-file-url: none; fill: none; fill-rule: nonzero; opacity: 1;" transform=" translate(-405.2646, -378.7312)" d="M 410.94 371.68 c -9 -7.5 -20.61 6.87 -11.36 14.1 a 8.45 8.45 0 0 0 5.68 2.11 C 412.49 387.69 418.3 377.43 410.94 371.68 Z" stroke-linecap="round"/>
</g>
		<g transform="matrix(1 0 0 1 96.165 -17.065)" id="Layer_1">
<line style="stroke: rgb(255,255,255); stroke-width: 3; stroke-dasharray: none; stroke-linecap: butt; stroke-dashoffset: 0; stroke-linejoin: miter; stroke-miterlimit: 10; is-custom-font: none; font-file-url: none; fill: none; fill-rule: nonzero; opacity: 1;" x1="-6.155000000000001" y1="-16.045000000000016" x2="6.155000000000001" y2="16.045000000000016"/>
</g>
		<g transform="matrix(1 0 0 1 61.455 -190.61)" id="Layer_1">
<line style="stroke: rgb(255,255,255); stroke-width: 3; stroke-dasharray: none; stroke-linecap: butt; stroke-dashoffset: 0; stroke-linejoin: miter; stroke-miterlimit: 10; is-custom-font: none; font-file-url: none; fill: none; fill-rule: nonzero; opacity: 1;" x1="-1.5649999999999977" y1="17.730000000000004" x2="1.5649999999999977" y2="-17.730000000000004"/>
</g>
		<g transform="matrix(1 0 0 1 102.16 -137.355)" id="Layer_1">
<polyline style="stroke: rgb(255,255,255); stroke-width: 3; stroke-dasharray: none; stroke-linecap: butt; stroke-dashoffset: 0; stroke-linejoin: miter; stroke-miterlimit: 10; is-custom-font: none; font-file-url: none; fill: none; fill-rule: nonzero; opacity: 1;" points="-11.16,47.855 11.16,47.855 11.16,-47.855 "/>
</g>
</g>
</g>
</svg>