<?xml version="1.0" encoding="UTF-8"?>
<svg id="Layer_1" data-name="Layer 1" xmlns="http://www.w3.org/2000/svg" viewBox="0 0 1920 1080">
  <defs>
    <style>
      .cls-1 {
        fill: none;
        stroke-width: 3px;
      }

      .cls-1, .cls-2, .cls-3, .cls-4 {
        stroke: #fff;
        stroke-miterlimit: 10;
      }

      .cls-5, .cls-4 {
        fill: #6aa329;
      }

      .cls-6 {
        isolation: isolate;
      }

      .cls-2, .cls-3, .cls-4 {
        stroke-width: .5px;
      }

      .cls-2, .cls-7 {
        fill: #fff;
      }

      .cls-3, .cls-8 {
        fill: #101806;
      }

      .cls-9 {
        fill: #1a1a1a;
      }
    </style>
  </defs>
  <rect class="cls-7" y="0" width="1920" height="1080"/>
  <g id="_67401" data-name="67401">
    <g vector-effect="non-scaling-stroke">
      <g id="rect24171">
        <rect class="cls-9" x="0" width="1919.99" height="1079.99"/>
      </g>
    </g>
  </g>
  <g id="Box">
    <path id="Box_background" data-name="Box background" class="cls-7" d="M961.57,537.3c-.26-.16-1.56-.41-1.87-.41-10.32-.26-151.92-41.58-160.79-33.65-8.87,7.93-.31.47-.57.62l-37.7,30.18c-7.05,5.19,14.52,14.1,45.94,21.98,1.09.26,4.82.47,4.41,1.56s-.21.78-.16,1.24l13.17,123.15c.16,1.09.83,1.92,1.76,2.23l129.68,46.77c1.14.41,2.23,0,2.7,0,.67,0,2.8-1.76,2.8-3.27l.16.88c0,1.3,1.14,2.23,2.49,2.39s1.71-.16,1.92-.31l131.91-46.67c.88-.31,1.45-1.09,1.56-2.02l13.27-123.72h0c-.31-2.85.93-1.56,3.11-2.54,31.42-7.93,54.18-16.85,46.1-22.66h0l-42.21-33.76c-.47-.41-1.09-.47-1.61-.41l-155.97,38.16"/>
    <g id="Box1">
      <path class="cls-8" d="M790.93,513.6l-8.45,6.9-8.45,6.9-8.45,6.9c-4.1,3.01-.31,6.12,9.23,9.54s19.65,6.53,38.73,10.99c3.89-.47,1.56-.93,4.72-.16s86.75,22.5,90.43,23.59c3.68,1.09,1.04.16,1.45.1s.93-.26,1.4-.47c2.02-1.24,5.19-3.58,9.02-6.59,3.79-3.01,8.4-6.9,13.33-11.1s11.36-9.7,15.66-13.33c4.36-3.63,5.91-4.87,7.21-5.81s.93-.78,1.3-1.24.47-.73-.1-1.04l-.78-.31c-.41-.16-1.04-.31-1.4-.41-3.89-.62-13.01-2.96-24.99-6.07-11.93-3.11-27.01-7.16-42.47-11.1s-32.67-8.24-47.08-11.41c-14.41-3.16-26.86-5.34-34.38-5.65-.93,0-1.87,0-2.7.26s-1.61.31-2.33.52-1.24.52-1.61.78-1.24,1.04-1.24,1.04l-7.99,6.9v.26h-.05,0Z"/>
      <path class="cls-8" d="M1157.15,534.19c0-.05-.16-.26-.31-.31l-19.39-16.23-18.87-15.76c-.41-.31-.88-.41-1.3-.31l-74.72,18.25s-54.81,13.64-74.25,18.15c0,0-1.61.52-1.92.78s-.31.16-.31.31l-.26.62v.62c0,.26.1.62.26.93s.93,1.24,1.09,1.4l20.9,15.97,20.48,16.75c.67.52,2.54,1.87,3.63,2.7s3.16.31,3.94,0c4.87-1.61,16.07-4.41,30.44-8.14,14.36-3.73,31.89-8.61,49.36-12.65l7.21-1.87,6.27-1.61,1.04-.26s.62.16,0,0c.41.16.88.26,1.24.26s.88,0,1.24-.1l2.39-.67,2.39-.73c4.98-1.24,6.59-1.71,7.93-2.23s2.49-1.04,6.43-2.23c5.03-1.56,10.01-2.96,14.21-4.41,4.2-1.45,7.78-2.8,9.8-4.2,1.24-.93,2.02-1.92,2.18-2.8s-.67-1.92-1.04-2.39v.16h-.05Z"/>
      <path class="cls-8" d="M817.32,557.47h-.93c-1.4.26-2.39,1.45-2.23,2.85l12.7,120.35c.16,1.09.83,1.87,1.71,2.18l126.21,45.11c.26.16,1.3.52,2.8.52s2.02-2.18,2.02-3.58v-181.58c0-.26-.31-.41-.47-.26l-47.08,37.49c-.62.47-1.3.52-2.07.41l-92.55-23.49h-.1Z"/>
      <path class="cls-8" d="M1013.26,581.06c-.67.16-2.02.16-2.49-.31,0,0-.93-.47-1.3-.88l-12.81-10.47-26.86-21.41-6.43-5.03c-.26-.16-.52,0-.52.26v183.14c0,1.3,1.14,1.92,2.39,1.92s1.76-.47,2.02-.62l127.71-44.7h.16c.26-.41.41-.67.47-1.14l13.01-123.3h0c0-.62-.47-1.14-1.09-1.14h-.26l-92.3,23.44h0l-1.76.31h0l.05-.05Z"/>
    </g>
  </g>
  <g id="Brain">
    <path id="Brain_background" data-name="Brain background" class="cls-2" d="M916.41,319.27l-79.8,44.9c-5.6,3.16-9.54,8.61-10.89,14.93-6.59,32.56-17.89,42.98,2.8,74.15,3.01,4.51,7.52,7.78,12.81,9.07,37.54,9.8,48.43,6.9,71.71,39.93,5.19,7.36,14.36,10.89,23.23,8.87,17.11-4.04,40.24-16.18,52.68-22.09,3.58-1.61,7.47-2.39,11.36-2.02l55.9,4.67c2.23.16,4.51.05,6.74-.47,37.44-8.4,55.9-50.97,36.3-83.95-7.93-13.38-18.82-26.96-29.92-45.99-2.33-3.94-5.81-7.16-10.01-9.07-52.06-23.96-78.5-46.15-142.9-32.93"/>
    <g id="Electrods">
      <path class="cls-4" d="M917.49,411.2c-.78-2.64-2.59-3.58-3.89-3.89-.47-.05-.93-.16-1.4-.16-1.81,0-3.73.78-4.87,2.13-.93.99-1.87,2.8-1.04,5.34.78,2.64,2.59,3.58,3.89,3.89,2.18.57,4.82-.31,6.27-1.97.93-.99,1.87-2.8,1.04-5.34h0Z"/>
      <path class="cls-4" d="M879.38,388.07h.05c-1.24-1.09-2.39-1.4-3.47-1.4s-1.3.16-1.87.31c-2.07.78-3.89,2.96-4.2,5.19-.26,1.35,0,3.32,2.07,4.98,2.07,1.76,4.1,1.56,5.34.99,2.07-.78,3.79-2.96,4.1-5.13.26-1.35,0-3.32-2.07-4.98h.05s0,.03,0,0v.05Z"/>
      <path class="cls-4" d="M918.58,372.93h0c-.26,1.4,0,3.42,2.07,5.03,2.18,1.76,4.1,1.56,5.44.99,2.07-.83,3.79-2.96,4.1-5.19.26-1.35,0-3.32-2.18-4.98-1.24-1.09-2.39-1.4-3.47-1.4s-1.3.16-1.87.31c-2.07.78-3.89,2.96-4.2,5.19h.1v.05h0Z"/>
      <path class="cls-4" d="M969.24,410.42c-1.24-1.09-2.44-1.4-3.47-1.4s-1.3.16-1.87.31c-2.07.78-3.89,2.96-4.2,5.19-.26,1.35,0,3.32,2.07,4.98,2.18,1.81,4.1,1.56,5.44,1.04,2.07-.83,3.79-2.96,4.1-5.19h0c.26-1.24,0-3.27-2.18-4.87h.1v-.05h0Z"/>
      <path class="cls-4" d="M933.26,461.44h0c2.07-.78,3.79-2.96,4.1-5.13.26-1.3,0-3.32-2.07-4.98-1.24-1.09-2.39-1.4-3.47-1.4s-1.3.16-1.87.31c-2.07.78-3.89,2.96-4.2,5.19-.26,1.3,0,3.32,2.07,4.98,2.07,1.81,4.1,1.56,5.34,1.04h.1Z"/>
      <path class="cls-4" d="M1075.02,460.46c2.07,1.81,4.1,1.56,5.44,1.04,2.07-.83,3.79-2.96,4.1-5.19.26-1.3,0-3.32-2.18-4.98-1.24-1.09-2.44-1.4-3.47-1.4s-1.3.16-1.87.31c-2.07.78-3.89,2.96-4.2,5.19h0c-.26,1.4,0,3.42,2.07,5.03h.1,0Z"/>
      <path class="cls-4" d="M1011.97,362.67c-.78-2.64-2.59-3.47-3.89-3.79-.47,0-.93-.16-1.4-.16-1.87,0-3.79.78-4.98,2.13-.93.99-1.87,2.7-1.04,5.29.78,2.64,2.49,3.58,3.79,3.89,2.18.57,4.82-.21,6.38-1.97.93-.99,1.87-2.8,1.09-5.34h0s0-.03,0,0l.05-.05Z"/>
      <path class="cls-4" d="M1016.58,452.94c-1.09,0-1.3.16-1.87.31-2.07.78-3.89,2.96-4.2,5.19-.26,1.3,0,3.32,2.07,4.98,1.09.93,2.33,1.4,3.73,1.4,2.44,0,4.72-1.97,5.6-4.51.78-2.28,0-4.41-1.87-5.96h0c-1.24-1.04-2.44-1.4-3.47-1.4h0Z"/>
      <path class="cls-4" d="M876.01,435.52c2.39,0,4.72-1.97,5.6-4.51.78-2.28,0-4.41-1.87-5.96-1.24-1.04-2.39-1.4-3.47-1.4s-1.3.16-1.87.31c-2.07.78-3.89,2.96-4.2,5.19-.26,1.3,0,3.32,2.07,4.98h0c1.09.93,2.33,1.4,3.73,1.4h0Z"/>
      <path class="cls-4" d="M1026.02,418.3c-.47-.05-.93-.16-1.4-.16-1.81,0-3.73.78-4.87,2.07-.93,1.04-1.87,2.8-1.04,5.34.78,2.64,2.59,3.58,3.89,3.89,2.18.52,4.82-.31,6.27-1.97.93-1.04,1.87-2.8,1.04-5.34-.78-2.64-2.59-3.58-3.89-3.89h0s0,.03,0,0v.05Z"/>
    </g>
    <path id="Brain_foreground" data-name="Brain foreground" class="cls-3" d="M1101.41,410.52c-.31-.62-1.45-.73-1.97-.16l-11.56,11.98c-.67.73-2.23,2.7-2.64,4.25l-3.63,20.58c0,.52.26.93.62,1.24.62.52.62.78,1.24,1.24,2.33,1.87,3.42,4.36,3.01,7.16-.47,3.11-2.7,5.91-5.6,7-.93.31-1.81.52-2.7.52-1.81,0-3.47-.62-4.98-1.97-2.33-1.81-3.32-4.36-2.96-7.16.47-3.11,2.7-5.91,5.65-7,.52-.26,1.09-.31,1.66-.41.52,0,.93-.47,1.04-.93l3.63-21.16v-.16c.62-2.28,1.45-3.94,2.23-4.56l12.91-13.27c.52-.57,1.3-1.5,1.09-1.97-.26-.41-18.56-25.82-29.66-44.85-2.33-3.94-3.63-4.72-7.05-7.47-1.3-.78-1.09-1.24-3.42-2.33,0,0-2.64-1.66-2.64-.78l-4.98,66.99v.21c-.31.41,0,3.58-4.87,5.13h-.1l-12.13,1.3c-.62,0-1.09.47-1.14,1.04-.16,1.56-.93,2.07-2.02,3.27-1.66,1.81-4.2,2.85-6.59,2.85s-1.3,0-1.97-.26c-2.7-.62-4.72-2.59-5.6-5.44-.93-2.8-.41-5.5,1.56-7.62,2.07-2.28,5.5-3.32,8.56-2.64,2.49.57,4.41,2.28,5.34,4.72.16.47.62.73,1.09.73l10.01-.83h0c3.47-.78,4.56-1.76,5.03-5.5l4.87-64.55c0-.78-3.73-2.64-3.42-2.49-13.84-6.69-26.08-13.07-38.06-18.36h-.16c-.16,0-.26.16-.26.31l-1.87,25.51c0,.62.31,1.4.93,1.56,2.7.62,3.47,2.18,4.36,5.03.93,2.9.41,5.6-1.56,7.62h0c-1.71,1.71-4.2,2.8-6.69,2.8s-2.33-.31-2.96-.57c-2.7-.62-3.63-2.28-4.51-5.13-.93-2.8-.41-5.44,1.45-7.52,1.4-1.5,3.27-2.49,5.29-2.8.52-.05.88-1.09.88-1.61l1.97-26.39v-.16l-.16-.16h0c-11.82-5.03-33.96-9.96-39.72-11.2-.67-.16-2.02-.26-1.97.41.41,8.24,2.59,52.84,2.85,58.49.1,2.33-.1,3.27-1.04,4.56s-1.4,1.56-2.23,2.18l-45.21,28.36-.47.31c.52,2.54,0,4.87-1.81,6.74-1.61,1.76-4.2,2.9-6.59,2.9s-2.33-.26-3.27-.62h0c-2.39-1.24-3.42-2.28-4.25-5.03-.93-2.8-.41-5.5,1.56-7.62,2.07-2.28,5.5-3.32,8.56-2.64,1.4.47,2.49,1.14,3.32,2.02.41.57,1.04,1.76,1.87,1.35l44.23-27.64c2.18-1.61,2.59-3.11,2.44-4.82l-2.49-58.44c0-1.09-.67-1.14-1.04-1.3s-28.1-.31-46.3,3.42c-.05,0-.26,0-.31.16-.73.41-1.09,1.09-1.14,1.87v.88l-2.02,20.27c0,.47,0,.78.31,1.56l10.11,20.43c.26.41.62.73,1.09.62,1.97-.16,3.73.47,5.44,1.87,2.33,1.87,3.42,4.36,3.01,7.16-.47,3.11-2.7,5.91-5.6,7-.93.31-1.81.57-2.7.57-1.81,0-3.47-.62-4.98-1.97-2.33-1.76-3.32-4.36-2.96-7.16.31-2.49,1.87-4.72,4.04-6.12.47-.31.73-.93.41-1.5l-9.85-20.27c-.26-.41-.31-1.35-.31-1.87.26-2.18,1.4-14.16,1.87-19.29.05-.93-.93-1.56-1.71-1.09l-74.51,41.95c-5.6,3.16-9.54,8.61-10.89,14.93-2.07,10.16-4.56,18.2-6.43,25.36s.26,2.18,1.24,2.64l10.89,5.19,10.16,4.67c.26.05.62.57,2.33.41,1.04-.16,1.5-.31,3.27-1.61h0l11.2-9.7,9.7-7.83c.26-.16.73-.73.78-.99,0-.21-.26-.57-.41-.78-.47-.78-.47-.99-.73-1.87-.16-.83-.26-1.76-.05-2.64.26-1.56.93-3.01,1.97-4.25s2.28-2.18,3.73-2.7c1.3-.47,2.64-.62,3.94-.41s2.59.83,3.63,1.76c1.14.93,2.02,2.02,2.49,3.16s.62,2.49.41,3.89l-.31,1.4h0c-.41,1.24-1.14,2.39-2.02,3.32-.93.93-2.02,1.71-3.16,2.18-.47.16-.93.31-1.4.41s-.83.16-1.4.16-1.3-.05-1.97-.31c-.62-.16-1.24-.47-1.87-.83-.26-.16-.47-.16-.73-.16s-.47.05-.62.31l-11.98,9.96-10.42,8.61c-.16.16-1.97,1.56-3.79,2.02-1.87.41-3.94-.57-4.2-.62l-9.23-4.36-10.79-5.03-.78-.47h0c-.52-.31-1.24,0-1.4.62-2.59,12.91-1.56,24.11,10.73,42.57,1.87,2.7,5.5,5.6,6.84,6.53s.62.16.93,0l31.68-26.13c.41-.31.52-.83.41-1.3-.41-1.14-.62-2.33-.41-3.58.47-3.11,2.7-5.91,5.65-7,2.64-1.04,5.34-.47,7.62,1.4,2.7,2.18,3.73,5.34,2.64,8.56-1.14,3.47-4.36,5.96-7.78,6.07-2.02,0-3.79-.73-5.19-1.97-.05,0-.16-.16-.26-.26-.41-.41-1.04-.41-1.5,0l-30.59,24.94c-.31.26-.26.78.16.93.83.31,2.02.73,2.7.83,29.61,7.67,41.95,6.84,57.55,22.71.73.73,1.81.31,1.97-.26l1.3-6.84c.41-2.59.73-3.42,1.97-4.36,0,0,15.76-8.71,19.96-12.91s.16-.52.16-.52c-1.09-3.01-1.04-2.39-.62-5.19.47-3.11,2.7-5.91,5.65-7,2.64-1.04,5.34-.47,7.62,1.4,2.33,1.87,3.42,4.36,2.96,7.16-.47,3.11-2.7,5.91-5.6,7-.93.31-1.81.52-2.7.52h-1.61c-1.04-.16-1.87-.78-2.28-1.09-.16-.05-.31-.16-.47,0l-19.91,12.65c-.78.47-1.3,1.24-1.5,2.07s-.26,1.24-.47,2.07l-1.71,8.61v1.14c3.27,3.89,5.65,7.36,9.54,12.91,5.19,7.36,14.36,10.89,23.23,8.87,16.07-3.79,37.54-14.78,50.45-21,.62-.31.88-1.09.47-1.71l-21.83-32.61c-1.04-1.4-1.87-5.13-1.81-6.84v-25.36c.1-.47-.26-.93-.62-1.09-.93-.31-1.81-.78-2.64-1.5-2.33-1.76-3.32-4.36-2.96-7.16.47-3.11,2.7-5.91,5.65-7,2.64-.99,5.34-.47,7.62,1.4,2.33,1.87,3.42,4.36,3.01,7.16-.47,3.11-2.7,5.91-5.6,7-.41.16-.67.26-1.09.31-.52.16-.93.62-.93,1.14l.26,25.1c0,1.09,1.3,5.13,1.81,5.6l21.62,33.18c.31.47.88.62,1.4.47,3.01-1.09,6.22-1.56,9.39-1.24l24.16,1.97c.78-.05.67-.31.52-.73l-7.83-21c-.16-.47-.67-.78-1.24-.78h-.41c-1.97-.41-2.8-1.04-4.41-1.97h0c-2.33-1.87-3.32-4.36-2.96-7.16.47-3.11,2.7-5.91,5.65-7,2.64-1.04,5.34-.47,7.62,1.4,2.7,2.18,3.73,5.34,2.64,8.56-.67,1.97-1.4,3.11-2.96,4.2-.47.31-.47,1.3-.26,1.81l8.3,22.24c.16.41.52.73,1.04.78l25.98,2.07c2.23.16,4.51,0,6.74-.47,36.19-8.09,55.01-48.12,38.53-80.52l-.52.21h0l.16.21h0Z"/>
    <path id="Brain_outline" data-name="Brain outline" class="cls-1" d="M916.41,319.27l-79.8,44.9c-5.6,3.16-9.54,8.61-10.89,14.93-6.59,32.56-17.89,42.98,2.8,74.15,3.01,4.51,7.52,7.78,12.81,9.07,37.54,9.8,48.43,6.9,71.71,39.93,5.19,7.36,14.36,10.89,23.23,8.87,17.11-4.04,40.24-16.18,52.68-22.09,3.58-1.61,7.47-2.39,11.36-2.02l55.9,4.67c2.23.16,4.51.05,6.74-.47,37.44-8.4,55.9-50.97,36.3-83.95-7.93-13.38-18.82-26.96-29.92-45.99-2.33-3.94-5.81-7.16-10.01-9.07-52.06-23.96-78.5-46.15-142.9-32.93"/>
  </g>
  <g class="cls-6">
    <path class="cls-7" d="M760.7,807.44h-7.77v-47.2h7.7l26.2,35.22v-35.22h7.97v47.2h-7.97l-26.2-34.82.07,34.82Z"/>
    <path class="cls-7" d="M804.44,760.25h35.38l-1.09,8.1-26.56-.16.07,10.7,15.73-.17-.07,8.95-15.73.07v10.6l26.23-.07,1.42,9.18h-35.38v-47.2Z"/>
    <path class="cls-7" d="M848.15,760.25h7.77v39.46h22.18v-39.46h7.77v40.45c0,.92-.18,1.79-.53,2.62-.35.82-.83,1.54-1.45,2.16s-1.34,1.1-2.17,1.45c-.83.35-1.71.53-2.63.53h-24.16c-.92,0-1.8-.18-2.63-.53-.83-.35-1.56-.83-2.17-1.45s-1.1-1.33-1.45-2.16c-.35-.82-.53-1.69-.53-2.62v-40.45Z"/>
    <path class="cls-7" d="M929.38,777.1c0,3.6-1.12,6.21-3.36,7.83-3.12,2.3-6.58,3.45-10.4,3.42l13.76,19.09h-9.48l-11.59-18.86h-7.44v18.86h-6.71v-47.2h23.43c7.85,0,11.78,3.83,11.78,11.49v5.37ZM900.88,781.84l11.98-.1c3.07-.02,5.18-.42,6.32-1.19,2.02-1.38,3.03-2.3,3.03-2.76v-5.23c0-1.76-.44-3.07-1.32-3.95-1.1-1.08-2.33-1.61-3.69-1.61h-16.32v14.84Z"/>
    <path class="cls-7" d="M978.06,796.45c-.06,3.77-.23,6.06-.49,6.85-.22.7-.7,1.43-1.45,2.17-.53.53-1.34.99-2.44,1.38-1.03.37-2.82.56-5.37.56l-21.33.03c-.92,0-2.23-.18-3.92-.53-1.93-.4-3.08-.88-3.46-1.45-.75-1.14-1.23-1.85-1.45-2.14-.35-.5-.54-2.8-.56-6.88l-.07-13.76c0-6.96.07-11.12.2-12.51.02-2.02.21-3.97.56-5.86.11-.61.55-1.32,1.32-2.11.5-.53,1.66-1.01,3.46-1.45,1.47-.35,2.78-.53,3.92-.53l21.33-.03c2.72-.02,4.51.14,5.37.49,1.01.4,1.82.9,2.44,1.51.68.66,1.21,1.37,1.58,2.14.31.62.47,2.56.49,5.83l.13,13.1c0,6.34-.09,10.73-.26,13.17ZM945.67,768.01v31.5h24.55v-31.5h-24.55Z"/>
  </g>
  <g class="cls-6">
    <path class="cls-5" d="M985.84,807.44v-47.2l24.65.2c1.93,0,4.21.5,6.85,1.51,2.02.79,3.75,1.91,5.2,3.36,1.58,1.58,2.7,3.31,3.36,5.2.79,2.37,1.17,4.64,1.15,6.81l-.03,13.59c0,2.55-.4,4.82-1.18,6.81-.79,2.04-1.9,3.78-3.32,5.22-1.43,1.44-3.16,2.54-5.18,3.32-2.03.78-4.31,1.17-6.83,1.17h-24.65ZM1009.93,798.66c3.86,0,6.28-.53,7.24-1.58,1.67-1.8,2.51-4.53,2.53-8.2l.1-10.99c.02-1.49-.3-2.86-.96-4.11-.66-1.21-1.41-2.23-2.25-3.08-.84-.84-1.87-1.49-3.08-1.92-1.21-.44-2.37-.66-3.49-.66h-16.79v30.54h16.69Z"/>
    <path class="cls-5" d="M1036.82,760.25h35.38l-1.09,8.1-26.56-.16.07,10.7,15.73-.17-.07,8.95-15.73.07v10.6l26.23-.07,1.42,9.18h-35.38v-47.2Z"/>
    <path class="cls-5" d="M1088.23,786.28c-.88-.02-1.76-.21-2.63-.56-.83-.35-1.56-.83-2.17-1.43s-1.1-1.32-1.45-2.14c-.35-.82-.53-1.7-.53-2.62v-12.54c0-.92.18-1.79.53-2.62.35-.82.83-1.54,1.45-2.14s1.34-1.09,2.17-1.45c.83-.36,1.71-.54,2.63-.54h22.91c.92,0,1.79.18,2.6.53s1.52.83,2.14,1.45c.83.81,1.32,1.54,1.45,2.17l.53,2.6-.07,5.27-6.98,2.14v-6.09h-22.58v11.22l22.91.39c.92.02,1.78.2,2.57.53.83.35,1.56.83,2.17,1.45.61.62,1.1,1.33,1.45,2.16.35.82.53,1.7.53,2.62v14.02c0,.92-.18,1.79-.53,2.62-.35.82-.83,1.54-1.45,2.16-.62.61-1.33,1.1-2.14,1.45s-1.68.53-2.6.53h-23.57c-.92,0-1.8-.18-2.63-.53-.83-.35-1.56-.83-2.17-1.45s-1.1-1.33-1.45-2.16c-.35-.82-.53-1.69-.53-2.62v-6.06l7.44-1.28v6.06h22.58v-12.74l-22.58-.39Z"/>
    <path class="cls-5" d="M1134.61,760.25v18.83l20.6-18.83h10.17l-24.22,21.56,25.25,25.64h-10.17l-21.62-22.08v22.08h-8.33v-47.2h8.33Z"/>
  </g>
</svg>