<svg id="Layer_1" data-name="Layer 1" xmlns="http://www.w3.org/2000/svg" viewBox="0 0 636 842"><defs><style>.cls-1{fill:none;stroke-width:3px;}.cls-1,.cls-2{stroke:#fff;stroke-miterlimit:10;}.cls-2{fill:#231f20;stroke-width:2px;}</style></defs><path d="M260.89,199.75,158.21,257.56a28.63,28.63,0,0,0-14,19.21c-8.49,41.94-23,55.32,3.57,95.4a28.41,28.41,0,0,0,16.49,11.71c48.32,12.64,62.32,8.91,92.32,51.43a28.6,28.6,0,0,0,29.93,11.38c22.05-5.22,51.76-20.82,67.84-28.4A28.7,28.7,0,0,1,369,415.66l71.91,6a28.39,28.39,0,0,0,8.67-.59c48.21-10.8,71.92-65.55,46.66-108C486,295.89,472,278.36,457.75,253.91a28.81,28.81,0,0,0-12.9-11.76c-67.1-30.76-101.06-59.39-184-42.4"/><path class="cls-1" d="M260.89,199.75,158.21,257.56a28.63,28.63,0,0,0-14,19.21c-8.49,41.94-23,55.32,3.57,95.4a28.41,28.41,0,0,0,16.49,11.71c48.32,12.64,62.32,8.91,92.32,51.43a28.6,28.6,0,0,0,29.93,11.38c22.05-5.22,51.76-20.82,67.84-28.4A28.7,28.7,0,0,1,369,415.66l71.91,6a28.39,28.39,0,0,0,8.67-.59c48.21-10.8,71.92-65.55,46.66-108C486,295.89,472,278.36,457.75,253.91a28.81,28.81,0,0,0-12.9-11.76c-67.1-30.76-101.06-59.39-184-42.4"/><path d="M283.57,365.46c-9-7.5-20.62,6.87-11.36,14.1C281.25,387.06,292.82,372.69,283.57,365.46Z"/><path class="cls-1" d="M283.57,365.46c-9-7.5-20.62,6.87-11.36,14.1C281.25,387.06,292.82,372.69,283.57,365.46Z"/><path d="M277.21,261.29c-9-7.5-20.61,6.86-11.36,14.1C274.89,282.89,286.46,268.52,277.21,261.29Z"/><path class="cls-1" d="M277.21,261.29c-9-7.5-20.61,6.86-11.36,14.1C274.89,282.89,286.46,268.52,277.21,261.29Z"/><path d="M475.13,368.25c-9-7.5-20.61,6.87-11.35,14.1C472.81,389.85,484.39,375.48,475.13,368.25Z"/><path class="cls-1" d="M475.13,368.25c-9-7.5-20.61,6.87-11.35,14.1C472.81,389.85,484.39,375.48,475.13,368.25Z"/><path d="M213.88,286c-9-7.5-20.62,6.87-11.36,14.1C211.56,307.57,223.13,293.2,213.88,286Z"/><path class="cls-1" d="M213.88,286c-9-7.5-20.62,6.87-11.36,14.1C211.56,307.57,223.13,293.2,213.88,286Z"/><path class="cls-2" d="M53.05,479.41,102.25,440c3.34-15.54,198.6,44.08,207.73,43a2.67,2.67,0,0,1,1,4.63c-2.24.55-60.81,51.74-63.66,50.23C246.91,532.37,31.11,495.61,53.05,479.41Z"/><path class="cls-2" d="M569.5,478.24,514.2,433.9,312,483.42v3.34l63.36,51.34C376.22,532.19,594.48,496.48,569.5,478.24Z"/><path class="cls-2" d="M312,489.85v240a3.42,3.42,0,0,1-4.56,3.22L137.05,672.84a3.41,3.41,0,0,1-2.26-2.86l-17-158.67a3.42,3.42,0,0,1,4.23-3.68l123.41,30.94a3.45,3.45,0,0,0,2.94-.63L312,488Z"/><path class="cls-2" d="M312,489.85V730.37a3.06,3.06,0,0,0,4.09,2.89l171.07-60.49a3.08,3.08,0,0,0,2-2.56L506.25,510.8a3.06,3.06,0,0,0-3.79-3.3L378.39,538.61a3.06,3.06,0,0,1-2.63-.56L312,488Z"/><path d="M385.44,254c-3.28-11.28-20.92-5.86-17.3,5.32C371.42,270.57,389.06,265.15,385.44,254Z"/><path class="cls-1" d="M385.44,254c-3.28-11.28-20.92-5.86-17.3,5.32C371.42,270.57,389.06,265.15,385.44,254Z"/><path d="M329,314.64c-9-7.5-20.61,6.87-11.35,14.1C326.72,336.24,338.29,321.87,329,314.64Z"/><path class="cls-1" d="M329,314.64c-9-7.5-20.61,6.87-11.35,14.1C326.72,336.24,338.29,321.87,329,314.64Z"/><polyline class="cls-1" points="269.42 259.53 255 230 257.83 201.47"/><polyline class="cls-1" points="202.36 299.46 167 330 134.87 313.53"/><polyline class="cls-1" points="274 381.01 243.69 401.29 242.21 416.55"/><path d="M408,330.41c-3.29-11.28-20.92-5.86-17.31,5.32C394,347,411.63,341.58,408,330.41Z"/><path class="cls-1" d="M408,330.41c-3.29-11.28-20.92-5.86-17.31,5.32C394,347,411.63,341.58,408,330.41Z"/><path d="M264,316.41c-3.29-11.28-20.92-5.86-17.31,5.32C250,333,267.63,327.58,264,316.41Z"/><path class="cls-1" d="M264,316.41c-3.29-11.28-20.92-5.86-17.31,5.32C250,333,267.63,327.58,264,316.41Z"/><polyline class="cls-1" points="264.02 316.41 327 276.91 323.24 195"/><polyline class="cls-1" points="322.5 330 322.8 370.76 354 418"/><path d="M213.86,333.61c-9-7.5-20.61,6.87-11.36,14.1a8.39,8.39,0,0,0,5.68,2.1C215.41,349.62,221.22,339.36,213.86,333.61Z"/><path class="cls-1" d="M213.86,333.61c-9-7.5-20.61,6.87-11.36,14.1a8.39,8.39,0,0,0,5.68,2.1C215.41,349.62,221.22,339.36,213.86,333.61Z"/><line class="cls-1" x1="200.5" y1="345.71" x2="157.96" y2="380.38"/><polyline class="cls-1" points="470.46 366.96 476.46 334.65 495.71 313.41"/><path d="M410.94,371.68c-9-7.5-20.61,6.87-11.36,14.1a8.45,8.45,0,0,0,5.68,2.11C412.49,387.69,418.3,377.43,410.94,371.68Z"/><path class="cls-1" d="M410.94,371.68c-9-7.5-20.61,6.87-11.36,14.1a8.45,8.45,0,0,0,5.68,2.11C412.49,387.69,418.3,377.43,410.94,371.68Z"/><line class="cls-1" x1="408.01" y1="387.89" x2="420.32" y2="419.98"/><line class="cls-1" x1="377.89" y1="248.12" x2="381.02" y2="212.66"/><polyline class="cls-1" points="409 331.5 431.32 331.5 431.32 235.79"/></svg>