<svg id="Layer_1" data-name="Layer 1" xmlns="http://www.w3.org/2000/svg" viewBox="0 0 595.28 841.89"><defs><style>.cls-1,.cls-2,.cls-3{stroke:#fff;stroke-miterlimit:10;stroke-width:3px;}.cls-2{fill:none;}.cls-3{fill-rule:evenodd;}</style></defs><path class="cls-1" d="M252.15,149.38l-17.87,2.06c-26.77,9.91-56.64,30-60,47.72-4,21-25.56,8.66-37.77,47.63-16.84,13.15-35.5,38.26-31.46,59.74,2.1,11.18-29.15,55.42-22.23,97.22-11.23,98.2,18.09,117.71,34.7,150.84,24.41,48.67,27.83,69.87,64.59,85.59,16.4,7,40.7,22,64.65,17.61,30.17-5.58,45.25-5.77,50.73-22.51,4.48-27.35-2-35-.58-76.57.9-26.37.77-37-.5-47.19l-1.87-29.12c-2.58-92.34-2.94-216.36-.77-254,.1-1.76,2.77-28.94-4.29-52.74-1.53-5.17-7.73-12.24-10.9-17.86C275,151.57,261.12,151.1,252.15,149.38Z"/><path class="cls-1" d="M342.31,149.56l17.92,1.72c26.95,9.37,57.22,28.84,60.93,46.52,4.39,20.9,25.72,8.15,38.7,46.86,17.1,12.82,36.26,37.55,32.64,59.11-1.88,11.22,30.25,54.83,24.16,96.76,13.17,98-15.76,118.05-31.71,151.5-23.44,49.14-26.44,70.41-62.88,86.85-16.26,7.34-40.26,22.84-64.29,18.89-30.27-5-45.35-4.88-51.17-21.5-5-27.25,1.32-35.06-.93-76.56-1.43-26.36-1.5-37-.43-47.2l1.28-29.15c.76-92.38-1.35-216.38-4.26-253.93-.14-1.76-3.34-28.88,3.24-52.82,1.43-5.19,7.49-12.39,10.55-18.08C319.47,152.21,333.38,151.46,342.31,149.56Z"/><polyline class="cls-2" points="301.37 211.75 337.13 251.46 370.46 250.65"/><path class="cls-3" d="M365,250.65a11.6,11.6,0,1,1,11.6,11.53A11.56,11.56,0,0,1,365,250.65Z"/><polyline class="cls-2" points="307 415 337.45 415 359.6 390.7"/><path class="cls-3" d="M348,390.7a11.61,11.61,0,1,1,11.61,11.53A11.57,11.57,0,0,1,348,390.7Z"/><polyline class="cls-2" points="519.98 422.12 474.39 465.81 410.89 403.51 439.39 375.2"/><path class="cls-3" d="M427.79,375.2a11.6,11.6,0,1,1,11.6,11.53,11.56,11.56,0,0,1-11.6-11.53Z"/><polyline class="cls-2" points="307.52 449.62 382.42 451.24 421.49 488.46"/><path class="cls-3" d="M409.89,488.46A11.6,11.6,0,1,1,421.49,500a11.56,11.56,0,0,1-11.6-11.52Z"/><path class="cls-3" d="M362.63,554.09A11.6,11.6,0,1,1,351,542.56a11.56,11.56,0,0,1,11.6,11.53Z"/><line class="cls-1" x1="304.84" y1="308.08" x2="354.5" y2="308.08"/><path class="cls-3" d="M347.9,308.08a11.6,11.6,0,1,1,11.6,11.53,11.56,11.56,0,0,1-11.6-11.53Z"/><polyline class="cls-2" points="294 213 258.85 251.46 226.1 250.68"/><path class="cls-3" d="M234.44,250.65a11.6,11.6,0,1,0-11.6,11.53,11.57,11.57,0,0,0,11.6-11.53Z"/><polyline class="cls-2" points="292 415 265.61 415 246.43 382.5"/><path class="cls-3" d="M258,382.5A11.61,11.61,0,1,0,246.42,394,11.57,11.57,0,0,0,258,382.5Z"/><path class="cls-3" d="M171.79,405.56a11.6,11.6,0,1,0-11.6,11.53,11.56,11.56,0,0,0,11.6-11.53Z"/><polyline class="cls-2" points="294 450 217.83 451.6 178.08 488.46"/><path class="cls-3" d="M189.68,488.46A11.6,11.6,0,1,0,178.08,500a11.56,11.56,0,0,0,11.6-11.52Z"/><path class="cls-3" d="M272.46,554.2a11.6,11.6,0,1,0-11.6,11.53,11.57,11.57,0,0,0,11.6-11.53Z"/><line class="cls-1" x1="292" y1="308.08" x2="239.98" y2="308.08"/><path class="cls-3" d="M251.58,308.08A11.6,11.6,0,1,0,240,319.61a11.56,11.56,0,0,0,11.6-11.53Z"/><path class="cls-3" d="M165.93,334.17a11.6,11.6,0,1,1-11.53-11.6,11.56,11.56,0,0,1,11.53,11.6Z"/><line class="cls-1" x1="142.73" y1="334.1" x2="95" y2="334.1"/><line class="cls-1" x1="150.56" y1="408.63" x2="80.1" y2="452.16"/><polyline class="cls-2" points="249.26 554.2 174.37 555.82 135.29 593.04"/><polyline class="cls-2" points="458.12 606.54 407.9 558.73 361.66 554.09"/></svg>